<svg width="533" height="533" viewBox="0 0 533 533" fill="none" xmlns="http://www.w3.org/2000/svg">
<path d="M240.011 26.5698C254.627 11.9088 278.373 11.9088 292.989 26.5698V26.5698C303.7 37.313 319.838 40.5232 333.845 34.6965V34.6965C352.959 26.745 374.897 35.8319 382.79 54.9703V54.9703C388.574 68.9945 402.256 78.1363 417.426 78.1132V78.1132C438.128 78.0817 454.918 94.8721 454.887 115.574V115.574C454.864 130.744 464.006 144.426 478.03 150.21V150.21C497.168 158.103 506.255 180.041 498.303 199.155V199.155C492.477 213.162 495.687 229.3 506.43 240.011V240.011C521.091 254.627 521.091 278.373 506.43 292.989V292.989C495.687 303.7 492.477 319.838 498.303 333.845V333.845C506.255 352.959 497.168 374.897 478.03 382.79V382.79C464.006 388.574 454.864 402.256 454.887 417.426V417.426C454.918 438.128 438.128 454.918 417.426 454.887V454.887C402.256 454.864 388.574 464.006 382.79 478.03V478.03C374.897 497.168 352.959 506.255 333.845 498.303V498.303C319.838 492.477 303.7 495.687 292.989 506.43V506.43C278.373 521.091 254.627 521.091 240.011 506.43V506.43C229.3 495.687 213.162 492.477 199.155 498.303V498.303C180.041 506.255 158.103 497.168 150.21 478.03V478.03C144.426 464.006 130.744 454.864 115.574 454.887V454.887C94.8721 454.918 78.0817 438.128 78.1132 417.426V417.426C78.1363 402.256 68.9945 388.574 54.9703 382.79V382.79C35.8319 374.897 26.745 352.959 34.6965 333.845V333.845C40.5232 319.838 37.313 303.7 26.5698 292.989V292.989C11.9088 278.373 11.9088 254.627 26.5698 240.011V240.011C37.313 229.3 40.5232 213.162 34.6965 199.155V199.155C26.745 180.041 35.8319 158.103 54.9703 150.21V150.21C68.9945 144.426 78.1363 130.744 78.1132 115.574V115.574C78.0817 94.8721 94.872 78.0817 115.574 78.1132V78.1132C130.744 78.1363 144.426 68.9945 150.21 54.9703V54.9703C158.103 35.8319 180.041 26.745 199.155 34.6965V34.6965C213.162 40.5232 229.3 37.313 240.011 26.5698V26.5698Z" fill="url(#paint0_linear_238_45)"/>
<path d="M236.824 23.3926C253.199 6.96788 279.801 6.96788 296.176 23.3926C305.598 32.8432 319.795 35.6676 332.116 30.542C353.53 21.6338 378.107 31.8139 386.95 53.2549C392.038 65.5916 404.074 73.6336 417.419 73.6133C440.612 73.578 459.422 92.3882 459.387 115.581C459.366 128.926 467.408 140.962 479.745 146.05C501.186 154.893 511.366 179.47 502.458 200.884C497.332 213.205 500.157 227.402 509.607 236.824C526.032 253.199 526.032 279.801 509.607 296.176C500.157 305.598 497.332 319.795 502.458 332.116C511.366 353.53 501.186 378.107 479.745 386.95C467.408 392.038 459.366 404.074 459.387 417.419C459.422 440.612 440.612 459.422 417.419 459.387C404.074 459.366 392.038 467.408 386.95 479.745C378.107 501.186 353.53 511.366 332.116 502.458C319.795 497.332 305.598 500.157 296.176 509.607C279.801 526.032 253.199 526.032 236.824 509.607C227.402 500.157 213.205 497.332 200.884 502.458C179.47 511.366 154.893 501.186 146.05 479.745C140.962 467.408 128.926 459.366 115.581 459.387C92.3882 459.422 73.578 440.612 73.6133 417.419C73.6336 404.074 65.5916 392.038 53.2549 386.95C31.8139 378.107 21.6338 353.53 30.542 332.116C35.6676 319.795 32.8432 305.598 23.3926 296.176C6.96788 279.801 6.96788 253.199 23.3926 236.824C32.8432 227.402 35.6676 213.205 30.542 200.884C21.6338 179.47 31.8139 154.893 53.2549 146.05C65.5916 140.962 73.6336 128.926 73.6133 115.581C73.578 92.3882 92.3882 73.578 115.581 73.6133C128.926 73.6336 140.962 65.5916 146.05 53.2549C154.893 31.8139 179.47 21.6338 200.884 30.542C213.205 35.6676 227.402 32.8432 236.824 23.3926Z" stroke="black" stroke-opacity="0.18" stroke-width="9"/>
<path d="M240.011 26.5698C254.627 11.9088 278.373 11.9088 292.989 26.5698V26.5698C303.7 37.313 319.838 40.5232 333.845 34.6965V34.6965C352.959 26.745 374.897 35.8319 382.79 54.9703V54.9703C388.574 68.9945 402.256 78.1363 417.426 78.1132V78.1132C438.128 78.0817 454.918 94.8721 454.887 115.574V115.574C454.864 130.744 464.006 144.426 478.03 150.21V150.21C497.168 158.103 506.255 180.041 498.303 199.155V199.155C492.477 213.162 495.687 229.3 506.43 240.011V240.011C521.091 254.627 521.091 278.373 506.43 292.989V292.989C495.687 303.7 492.477 319.838 498.303 333.845V333.845C506.255 352.959 497.168 374.897 478.03 382.79V382.79C464.006 388.574 454.864 402.256 454.887 417.426V417.426C454.918 438.128 438.128 454.918 417.426 454.887V454.887C402.256 454.864 388.574 464.006 382.79 478.03V478.03C374.897 497.168 352.959 506.255 333.845 498.303V498.303C319.838 492.477 303.7 495.687 292.989 506.43V506.43C278.373 521.091 254.627 521.091 240.011 506.43V506.43C229.3 495.687 213.162 492.477 199.155 498.303V498.303C180.041 506.255 158.103 497.168 150.21 478.03V478.03C144.426 464.006 130.744 454.864 115.574 454.887V454.887C94.8721 454.918 78.0817 438.128 78.1132 417.426V417.426C78.1363 402.256 68.9945 388.574 54.9703 382.79V382.79C35.8319 374.897 26.745 352.959 34.6965 333.845V333.845C40.5232 319.838 37.313 303.7 26.5698 292.989V292.989C11.9088 278.373 11.9088 254.627 26.5698 240.011V240.011C37.313 229.3 40.5232 213.162 34.6965 199.155V199.155C26.745 180.041 35.8319 158.103 54.9703 150.21V150.21C68.9945 144.426 78.1363 130.744 78.1132 115.574V115.574C78.0817 94.8721 94.872 78.0817 115.574 78.1132V78.1132C130.744 78.1363 144.426 68.9945 150.21 54.9703V54.9703C158.103 35.8319 180.041 26.745 199.155 34.6965V34.6965C213.162 40.5232 229.3 37.313 240.011 26.5698V26.5698Z" fill="url(#paint1_linear_238_45)"/>
<path d="M243.198 29.7471C256.056 16.8501 276.944 16.8501 289.802 29.7471C301.801 41.7827 319.882 45.3792 335.573 38.8516C352.388 31.8567 371.686 39.8506 378.63 56.6865C385.11 72.3977 400.438 82.6392 417.433 82.6133C435.644 82.5856 450.414 97.3558 450.387 115.567C450.361 132.562 460.602 147.89 476.313 154.37C493.149 161.314 501.143 180.612 494.148 197.427C487.621 213.118 491.217 231.199 503.253 243.198C516.15 256.056 516.15 276.944 503.253 289.802C491.217 301.801 487.621 319.882 494.148 335.573C501.143 352.388 493.149 371.686 476.313 378.63C460.602 385.11 450.361 400.438 450.387 417.433C450.414 435.644 435.644 450.414 417.433 450.387C400.438 450.361 385.11 460.602 378.63 476.313C371.686 493.149 352.388 501.143 335.573 494.148C319.882 487.621 301.801 491.217 289.802 503.253C276.944 516.15 256.056 516.15 243.198 503.253C231.199 491.217 213.118 487.621 197.427 494.148C180.612 501.143 161.314 493.149 154.37 476.313C147.89 460.602 132.562 450.361 115.567 450.387C97.3558 450.414 82.5856 435.644 82.6133 417.433C82.6392 400.438 72.3977 385.11 56.6865 378.63C39.8506 371.686 31.8567 352.388 38.8516 335.573C45.3792 319.882 41.7827 301.801 29.7471 289.802C16.8501 276.944 16.8501 256.056 29.7471 243.198C41.7827 231.199 45.3792 213.118 38.8516 197.427C31.8567 180.612 39.8506 161.314 56.6865 154.37C72.3977 147.89 82.6392 132.562 82.6133 115.567C82.5856 97.3558 97.3558 82.5856 115.567 82.6133C132.562 82.6392 147.89 72.3977 154.37 56.6865C161.314 39.8506 180.612 31.8567 197.427 38.8516C213.118 45.3792 231.199 41.7827 243.198 29.7471Z" stroke="black" stroke-opacity="0.18" stroke-width="9"/>
<path d="M267.472 373.79C258.21 373.79 250.702 366.281 250.702 357.019V175.77C250.702 166.508 258.21 159 267.472 159C276.734 159 284.243 166.508 284.243 175.77V357.019C284.243 366.281 276.734 373.79 267.472 373.79ZM176.795 283.427C167.519 283.427 160 275.907 160 266.631C160 257.356 167.519 249.836 176.795 249.836H357.205C366.481 249.836 374 257.356 374 266.631C374 275.907 366.481 283.427 357.205 283.427H176.795Z" fill="#5D4A10"/>
<path d="M267.473 157.421C277.607 157.421 285.822 165.636 285.822 175.771V248.257H357.205C367.353 248.257 375.579 256.484 375.579 266.632C375.579 276.78 367.353 285.006 357.205 285.006H285.822V357.02C285.822 367.154 277.607 375.369 267.473 375.369C257.338 375.369 249.123 367.154 249.123 357.02V285.006H176.795C166.647 285.006 158.421 276.78 158.421 266.632C158.421 256.484 166.647 248.257 176.795 248.257H249.123V175.771C249.123 165.636 257.338 157.421 267.473 157.421Z" stroke="black" stroke-opacity="0.27" stroke-width="3.15867"/>
<mask id="path-7-inside-1_238_45" fill="white">
<path d="M267.473 159C276.735 159 284.243 166.509 284.243 175.771V249.836H357.205C366.481 249.836 374 257.356 374 266.632C374 275.907 366.481 283.427 357.205 283.427H284.243V357.02C284.243 366.281 276.734 373.79 267.473 373.79C258.211 373.79 250.702 366.281 250.702 357.02V283.427H176.795C167.519 283.427 160 275.907 160 266.632C160 257.356 167.519 249.836 176.795 249.836H250.702V175.771C250.702 166.508 258.211 159 267.473 159Z"/>
</mask>
<path d="M267.473 159C276.735 159 284.243 166.509 284.243 175.771V249.836H357.205C366.481 249.836 374 257.356 374 266.632C374 275.907 366.481 283.427 357.205 283.427H284.243V357.02C284.243 366.281 276.734 373.79 267.473 373.79C258.211 373.79 250.702 366.281 250.702 357.02V283.427H176.795C167.519 283.427 160 275.907 160 266.632C160 257.356 167.519 249.836 176.795 249.836H250.702V175.771C250.702 166.508 258.211 159 267.473 159Z" fill="#5D4A10"/>
<path d="M267.473 159L267.473 157.421H267.473V159ZM284.243 249.836H282.664V251.415H284.243V249.836ZM357.205 249.836L357.205 248.257H357.205V249.836ZM374 266.632L375.579 266.632V266.632H374ZM357.205 283.427L357.205 285.006L357.205 285.006L357.205 283.427ZM284.243 283.427V281.847H282.664V283.427H284.243ZM284.243 357.02L285.822 357.02V357.02H284.243ZM267.473 373.79L267.473 375.369L267.473 375.369L267.473 373.79ZM250.702 357.02L249.123 357.02L249.123 357.02L250.702 357.02ZM250.702 283.427H252.281V281.847H250.702V283.427ZM176.795 283.427L176.795 285.006H176.795V283.427ZM160 266.632L158.421 266.632L158.421 266.632L160 266.632ZM176.795 249.836L176.795 248.257L176.795 248.257L176.795 249.836ZM250.702 249.836V251.415H252.281V249.836H250.702ZM267.473 159L267.473 160.579C275.862 160.579 282.664 167.381 282.664 175.771H284.243H285.822C285.822 165.636 277.607 157.421 267.473 157.421L267.473 159ZM284.243 175.771H282.664V249.836H284.243H285.822V175.771H284.243ZM284.243 249.836V251.415H357.205V249.836V248.257H284.243V249.836ZM357.205 249.836L357.205 251.415C365.608 251.415 372.421 258.228 372.421 266.632H374H375.579C375.579 256.484 367.353 248.257 357.205 248.257L357.205 249.836ZM374 266.632L372.421 266.632C372.42 275.035 365.608 281.847 357.205 281.847L357.205 283.427L357.205 285.006C367.353 285.006 375.579 276.78 375.579 266.632L374 266.632ZM357.205 283.427V281.847H284.243V283.427V285.006H357.205V283.427ZM284.243 283.427H282.664V357.02H284.243H285.822V283.427H284.243ZM284.243 357.02L282.664 357.02C282.664 365.409 275.862 372.211 267.473 372.211L267.473 373.79L267.473 375.369C277.607 375.369 285.822 367.154 285.822 357.02L284.243 357.02ZM267.473 373.79V372.211C259.083 372.211 252.282 365.409 252.281 357.02L250.702 357.02L249.123 357.02C249.123 367.154 257.338 375.369 267.473 375.369V373.79ZM250.702 357.02H252.281V283.427H250.702H249.123V357.02H250.702ZM250.702 283.427V281.847H176.795V283.427V285.006H250.702V283.427ZM176.795 283.427L176.795 281.847C168.392 281.847 161.58 275.035 161.579 266.632L160 266.632L158.421 266.632C158.421 276.78 166.647 285.006 176.795 285.006L176.795 283.427ZM160 266.632H161.579C161.579 258.228 168.392 251.415 176.795 251.415L176.795 249.836L176.795 248.257C166.647 248.257 158.421 256.484 158.421 266.632H160ZM176.795 249.836V251.415H250.702V249.836V248.257H176.795V249.836ZM250.702 249.836H252.281V175.771H250.702H249.123V249.836H250.702ZM250.702 175.771H252.281C252.281 167.381 259.083 160.579 267.473 160.579V159V157.421C257.338 157.421 249.123 165.636 249.123 175.771H250.702Z" fill="white" fill-opacity="0.4" mask="url(#path-7-inside-1_238_45)"/>
<defs>
<linearGradient id="paint0_linear_238_45" x1="266.5" y1="0" x2="266.5" y2="533" gradientUnits="userSpaceOnUse">
<stop stop-color="#FFDB70"/>
<stop offset="1" stop-color="#D8AD2E"/>
</linearGradient>
<linearGradient id="paint1_linear_238_45" x1="266.5" y1="0" x2="266.5" y2="533" gradientUnits="userSpaceOnUse">
<stop stop-color="#FFDB70"/>
<stop offset="1" stop-color="#D8AD2E"/>
</linearGradient>
</defs>
</svg>
