<svg width="618" height="481" viewBox="0 0 618 481" fill="none" xmlns="http://www.w3.org/2000/svg">
<mask id="path-1-outside-1_238_135" maskUnits="userSpaceOnUse" x="0" y="0" width="618" height="481" fill="black">
<rect fill="white" width="618" height="481"/>
<path d="M256 10C268.703 10 279 20.2975 279 33V61C279 73.7025 289.297 84 302 84H337V78C337 65.2975 347.297 55 360 55H583C595.702 55.0001 606 65.2975 606 78V129L606.001 129.001L606 129.005V130.815C606 130.917 605.916 131 605.814 131C605.725 131 605.648 131.065 605.633 131.153L550.771 451.878C548.882 462.924 539.307 471 528.101 471H33C20.2975 471 10 460.703 10 448V33C10 20.2975 20.2975 10 33 10H256Z"/>
</mask>
<path d="M256 10C268.703 10 279 20.2975 279 33V61C279 73.7025 289.297 84 302 84H337V78C337 65.2975 347.297 55 360 55H583C595.702 55.0001 606 65.2975 606 78V129L606.001 129.001L606 129.005V130.815C606 130.917 605.916 131 605.814 131C605.725 131 605.648 131.065 605.633 131.153L550.771 451.878C548.882 462.924 539.307 471 528.101 471H33C20.2975 471 10 460.703 10 448V33C10 20.2975 20.2975 10 33 10H256Z" fill="#D9D9D9"/>
<path d="M302 84L302 94H302V84ZM337 84V94H347V84H337ZM583 55L583 45H583V55ZM606 129H596V133.142L598.929 136.071L606 129ZM606.001 129.001L615.702 131.426L617.076 125.933L613.072 121.93L606.001 129.001ZM606 129.005L596.299 126.58L596 127.774V129.005H606ZM606 130.815L616 130.832L616 130.824V130.815H606ZM605.814 131V121H605.802L605.789 121L605.814 131ZM605.633 131.153L595.78 129.446L595.778 129.457L595.776 129.467L605.633 131.153ZM550.771 451.878L560.628 453.564L560.628 453.564L550.771 451.878ZM256 10V20C263.18 20 269 25.8203 269 33H279H289C289 14.7746 274.225 0 256 0V10ZM279 33H269V61H279H289V33H279ZM279 61H269C269 79.2254 283.775 94 302 94L302 84L302 74C294.82 74 289 68.1797 289 61H279ZM302 84V94H337V84V74H302V84ZM337 84H347V78H337H327V84H337ZM337 78H347C347 70.8203 352.82 65 360 65V55V45C341.775 45 327 59.7746 327 78H337ZM360 55V65H583V55V45H360V55ZM583 55L583 65C590.18 65.0001 596 70.8204 596 78H606H616C616 59.7746 601.225 45.0001 583 45L583 55ZM606 78H596V129H606H616V78H606ZM606 129L598.929 136.071L598.93 136.072L606.001 129.001L613.072 121.93L613.071 121.929L606 129ZM606.001 129.001L596.3 126.576L596.299 126.58L606 129.005L615.701 131.43L615.702 131.426L606.001 129.001ZM606 129.005H596V130.815H606H616V129.005H606ZM606 130.815L596 130.799C596.009 125.339 600.446 121 605.814 121V131V141C611.387 141 615.991 136.496 616 130.832L606 130.815ZM605.814 131L605.789 121C600.841 121.013 596.623 124.578 595.78 129.446L605.633 131.153L615.486 132.86C614.673 137.552 610.608 140.988 605.84 141L605.814 131ZM605.633 131.153L595.776 129.467L540.915 450.192L550.771 451.878L560.628 453.564L615.49 132.839L605.633 131.153ZM550.771 451.878L540.915 450.192C539.847 456.435 534.435 461 528.101 461V471V481C544.179 481 557.917 469.412 560.628 453.564L550.771 451.878ZM528.101 471V461H33V471V481H528.101V471ZM33 471V461C25.8203 461 20 455.18 20 448H10H0C0 466.225 14.7746 481 33 481V471ZM10 448H20V33H10H0V448H10ZM10 33H20C20 25.8203 25.8203 20 33 20V10V0C14.7746 0 0 14.7746 0 33H10ZM33 10V20H256V10V0H33V10Z" fill="black" fill-opacity="0.12" mask="url(#path-1-outside-1_238_135)"/>
<mask id="path-3-inside-2_238_135" fill="white">
<path d="M547 448C547 460.703 536.703 471 524 471H33C20.2974 471 10 460.703 10 448V33C10 20.2974 20.2975 10 33 10H256C268.703 10 279 20.2975 279 33V61C279 73.7025 289.297 84 302 84H524C536.703 84 547 94.2975 547 107V448Z"/>
</mask>
<path d="M547 448C547 460.703 536.703 471 524 471H33C20.2974 471 10 460.703 10 448V33C10 20.2974 20.2975 10 33 10H256C268.703 10 279 20.2975 279 33V61C279 73.7025 289.297 84 302 84H524C536.703 84 547 94.2975 547 107V448Z" fill="url(#paint0_linear_238_135)"/>
<path d="M524 471V461H33V471V481H524V471ZM10 448H20V33H10H0V448H10ZM33 10V20H256V10V0H33V10ZM279 33H269V61H279H289V33H279ZM302 84V94H524V84V74H302V84ZM547 107H537V448H547H557V107H547ZM524 84V94C531.18 94 537 99.8203 537 107H547H557C557 88.7746 542.225 74 524 74V84ZM279 61H269C269 79.2254 283.775 94 302 94V84V74C294.82 74 289 68.1797 289 61H279ZM256 10V20C263.18 20 269 25.8203 269 33H279H289C289 14.7746 274.225 0 256 0V10ZM10 33H20C20 25.8203 25.8203 20 33 20V10V0C14.7746 0 0 14.7746 0 33H10ZM33 471V461C25.8203 461 20 455.18 20 448H10H0C0 466.225 14.7746 481 33 481V471ZM524 471V481C542.225 481 557 466.225 557 448H547H537C537 455.18 531.18 461 524 461V471Z" fill="black" fill-opacity="0.3" mask="url(#path-3-inside-2_238_135)"/>
<path d="M337 94V420H20V352.899L55.2129 146.451C57.9174 130.596 71.6589 119 87.7432 119H314C321.18 119 327 113.18 327 106V94H337ZM66.4941 143.189C66.3647 143.502 66.242 143.818 66.126 144.138L66.3057 143.661C66.367 143.503 66.4294 143.346 66.4941 143.189Z" fill="black" fill-opacity="0.08"/>
<mask id="path-6-inside-3_238_135" fill="white">
<path d="M606 129C606 129 606 129 606 129C606.001 129 606.001 129 606.001 129.001L606 129.005C606 129.005 606 129.005 606 129.005V130.815C606 130.917 605.917 131 605.815 131C605.725 131 605.648 131.065 605.633 131.154L550.772 451.878C548.882 462.924 539.307 471 528.101 471H37.2559C23.008 471 12.1878 458.178 14.5834 444.133L65.0704 148.133C66.9553 137.082 76.5326 129 87.743 129H314C326.702 129 337 118.703 337 106V78C337 65.2975 347.297 55 360 55H583C595.702 55 606 65.2975 606 78V129Z"/>
</mask>
<path d="M606 129C606 129 606 129 606 129C606.001 129 606.001 129 606.001 129.001L606 129.005C606 129.005 606 129.005 606 129.005V130.815C606 130.917 605.917 131 605.815 131C605.725 131 605.648 131.065 605.633 131.154L550.772 451.878C548.882 462.924 539.307 471 528.101 471H37.2559C23.008 471 12.1878 458.178 14.5834 444.133L65.0704 148.133C66.9553 137.082 76.5326 129 87.743 129H314C326.702 129 337 118.703 337 106V78C337 65.2975 347.297 55 360 55H583C595.702 55 606 65.2975 606 78V129Z" fill="url(#paint1_linear_238_135)"/>
<path d="M550.772 451.878L540.915 450.192L550.772 451.878ZM605.633 131.154L595.776 129.468L605.633 131.154ZM606 129.005L615.806 130.966L606 129.005ZM606.001 129.001L615.806 130.962L606.001 129.001ZM606.001 129.001L596.195 127.039L596.194 127.043L606 129.005L615.806 130.966L615.806 130.962L606.001 129.001ZM606 129.005H596V130.815H606H616V129.005H606ZM605.633 131.154L595.776 129.468L540.915 450.192L550.772 451.878L560.629 453.564L615.49 132.84L605.633 131.154ZM528.101 471V461H37.2559V471V481H528.101V471ZM14.5834 444.133L24.441 445.814L74.928 149.814L65.0704 148.133L55.2128 146.451L4.72572 442.452L14.5834 444.133ZM87.743 129V139H314V129V119H87.743V129ZM337 106H347V78H337H327V106H337ZM360 55V65H583V55V45H360V55ZM606 78H596V129H606H616V78H606ZM583 55V65C590.18 65 596 70.8203 596 78H606H616C616 59.7746 601.225 45 583 45V55ZM337 78H347C347 70.8203 352.82 65 360 65V55V45C341.774 45 327 59.7746 327 78H337ZM314 129V139C332.225 139 347 124.225 347 106H337H327C327 113.18 321.18 119 314 119V129ZM65.0704 148.133L74.928 149.814C75.9934 143.568 81.4067 139 87.743 139V129V119C71.6586 119 57.9171 130.596 55.2128 146.451L65.0704 148.133ZM37.2559 471V461C29.2028 461 23.087 453.753 24.441 445.814L14.5834 444.133L4.72572 442.452C1.28857 462.603 16.8132 481 37.2559 481V471ZM550.772 451.878L540.915 450.192C539.847 456.435 534.435 461 528.101 461V471V481C544.179 481 557.918 469.412 560.629 453.564L550.772 451.878ZM605.815 131V121C600.853 121 596.613 124.576 595.776 129.468L605.633 131.154L615.49 132.84C614.683 137.553 610.597 141 605.815 141V131ZM606 130.815H596C596 125.394 600.394 121 605.815 121V131V141C611.44 141 616 136.44 616 130.815H606ZM606 129.005L596.194 127.043C596.065 127.689 596 128.346 596 129.005H606H616C616 129.664 615.935 130.32 615.806 130.966L606 129.005ZM606 129V139C599.69 139 594.957 133.227 596.195 127.039L606.001 129.001L615.806 130.962C617.044 124.773 612.311 119 606 119V129ZM606 129V119C611.557 119 616 123.511 616 129H606H596C596 134.489 600.443 139 606 139V129Z" fill="black" fill-opacity="0.3" mask="url(#path-6-inside-3_238_135)"/>
<defs>
<linearGradient id="paint0_linear_238_135" x1="278.5" y1="10" x2="278.5" y2="471" gradientUnits="userSpaceOnUse">
<stop stop-color="#FFE083"/>
<stop offset="1" stop-color="#C3B077"/>
</linearGradient>
<linearGradient id="paint1_linear_238_135" x1="310.125" y1="55" x2="310.125" y2="471" gradientUnits="userSpaceOnUse">
<stop stop-color="#FFE083"/>
<stop offset="1" stop-color="#C3B077"/>
</linearGradient>
</defs>
</svg>
