<svg width="340" height="340" viewBox="0 0 340 340" fill="none" xmlns="http://www.w3.org/2000/svg">
<rect width="340" height="340" fill="url(#paint0_linear_243_166)"/>
<rect x="7.5" y="7.5" width="325" height="325" stroke="black" stroke-opacity="0.4" stroke-width="15"/>
<g filter="url(#filter0_i_243_166)">
<path d="M113.568 260.325H113.567L80.2787 271.421C72.6384 273.967 65.3694 266.698 67.9161 259.058L79.0123 225.771H79.0137L92.8347 211.95L127.388 246.503L132.917 240.974L98.3638 206.421L230.361 74.4231L264.916 108.977L113.568 260.325ZM279.427 80.6441C283.244 84.4609 283.244 90.6492 279.427 94.4659L270.444 103.449L235.89 68.8947L244.873 59.9116C248.69 56.0948 254.878 56.0948 258.695 59.9116L279.427 80.6441Z" fill="url(#paint1_linear_243_166)" fill-opacity="0.53"/>
</g>
<defs>
<filter id="filter0_i_243_166" x="67.3984" y="57.0488" width="214.891" height="218.799" filterUnits="userSpaceOnUse" color-interpolation-filters="sRGB">
<feFlood flood-opacity="0" result="BackgroundImageFix"/>
<feBlend mode="normal" in="SourceGraphic" in2="BackgroundImageFix" result="shape"/>
<feColorMatrix in="SourceAlpha" type="matrix" values="0 0 0 0 0 0 0 0 0 0 0 0 0 0 0 0 0 0 127 0" result="hardAlpha"/>
<feOffset dy="3.90936"/>
<feGaussianBlur stdDeviation="1.95468"/>
<feComposite in2="hardAlpha" operator="arithmetic" k2="-1" k3="1"/>
<feColorMatrix type="matrix" values="0 0 0 0 0 0 0 0 0 0 0 0 0 0 0 0 0 0 0.25 0"/>
<feBlend mode="normal" in2="shape" result="effect1_innerShadow_243_166"/>
</filter>
<linearGradient id="paint0_linear_243_166" x1="170" y1="0" x2="170" y2="340" gradientUnits="userSpaceOnUse">
<stop stop-color="#468ADC"/>
<stop offset="1" stop-color="#1E5293"/>
</linearGradient>
<linearGradient id="paint1_linear_243_166" x1="269.061" y1="70.2775" x2="70.278" y2="269.06" gradientUnits="userSpaceOnUse">
<stop/>
<stop offset="1" stop-opacity="0.6"/>
</linearGradient>
</defs>
</svg>
