<svg width="111" height="24" viewBox="0 0 111 24" fill="none" xmlns="http://www.w3.org/2000/svg">
<g clip-path="url(#clip0_234_23)">
<rect y="4" width="16" height="16" rx="8" fill="#0FC281"/>
<rect x="2.07422" y="6.07227" width="11.8534" height="11.8534" rx="5.9267" fill="#2EE5A3"/>
<rect x="4.20898" y="8.20898" width="7.60247" height="7.60247" rx="3.80123" fill="#5CFFC4"/>
<rect x="2.07422" y="6.07227" width="11.8534" height="11.8534" rx="5.9267" fill="#2EE5A3"/>
<rect x="4.20898" y="8.20898" width="7.60247" height="7.60247" rx="3.80123" fill="#5CFFC4"/>
</g>
<path d="M21.86 19V5H26.12C27.44 5 28.6 5.3 29.6 5.9C30.6133 6.48667 31.4067 7.30667 31.98 8.36C32.5533 9.41333 32.84 10.6267 32.84 12C32.84 13.36 32.5533 14.5667 31.98 15.62C31.4067 16.6733 30.6133 17.5 29.6 18.1C28.6 18.7 27.44 19 26.12 19H21.86ZM23.56 17.44H26.12C26.8267 17.44 27.48 17.3067 28.08 17.04C28.68 16.76 29.2067 16.3667 29.66 15.86C30.1267 15.3533 30.4867 14.7733 30.74 14.12C31.0067 13.4533 31.14 12.7467 31.14 12C31.14 11.2533 31.0067 10.5533 30.74 9.9C30.4867 9.23333 30.1267 8.64667 29.66 8.14C29.2067 7.63333 28.68 7.24667 28.08 6.98C27.48 6.7 26.8267 6.56 26.12 6.56H23.56V17.44ZM39.5495 19.24C38.5762 19.24 37.7162 19.02 36.9695 18.58C36.2229 18.1267 35.6362 17.5067 35.2095 16.72C34.7962 15.9333 34.5895 15.0267 34.5895 14C34.5895 12.9733 34.7962 12.0667 35.2095 11.28C35.6362 10.4933 36.2162 9.88 36.9495 9.44C37.6962 8.98667 38.5495 8.76 39.5095 8.76C40.4429 8.76 41.2495 8.99333 41.9295 9.46C42.6095 9.91333 43.1362 10.5533 43.5095 11.38C43.8829 12.2067 44.0695 13.18 44.0695 14.3H35.8095L36.2095 13.96C36.2095 14.76 36.3495 15.4467 36.6295 16.02C36.9229 16.5933 37.3295 17.0333 37.8495 17.34C38.3695 17.6333 38.9629 17.78 39.6295 17.78C40.3362 17.78 40.9295 17.6133 41.4095 17.28C41.9029 16.9467 42.2829 16.5067 42.5495 15.96L43.9295 16.66C43.6762 17.18 43.3362 17.6333 42.9095 18.02C42.4962 18.4067 42.0029 18.7067 41.4295 18.92C40.8695 19.1333 40.2429 19.24 39.5495 19.24ZM36.3095 13.28L35.8895 12.96H42.7895L42.3695 13.3C42.3695 12.66 42.2429 12.1067 41.9895 11.64C41.7362 11.1733 41.3962 10.8133 40.9695 10.56C40.5429 10.3067 40.0495 10.18 39.4895 10.18C38.9429 10.18 38.4229 10.3067 37.9295 10.56C37.4495 10.8133 37.0562 11.1733 36.7495 11.64C36.4562 12.0933 36.3095 12.64 36.3095 13.28ZM48.8936 19L52.9736 9H54.6536L50.4736 19H48.8936ZM48.7936 19L44.6136 9H46.2736L50.3536 19H48.7936ZM60.3698 19.24C59.3965 19.24 58.5365 19.02 57.7898 18.58C57.0432 18.1267 56.4565 17.5067 56.0298 16.72C55.6165 15.9333 55.4098 15.0267 55.4098 14C55.4098 12.9733 55.6165 12.0667 56.0298 11.28C56.4565 10.4933 57.0365 9.88 57.7698 9.44C58.5165 8.98667 59.3698 8.76 60.3298 8.76C61.2632 8.76 62.0698 8.99333 62.7498 9.46C63.4298 9.91333 63.9565 10.5533 64.3298 11.38C64.7032 12.2067 64.8898 13.18 64.8898 14.3H56.6298L57.0298 13.96C57.0298 14.76 57.1698 15.4467 57.4498 16.02C57.7432 16.5933 58.1498 17.0333 58.6698 17.34C59.1898 17.6333 59.7832 17.78 60.4498 17.78C61.1565 17.78 61.7498 17.6133 62.2298 17.28C62.7232 16.9467 63.1032 16.5067 63.3698 15.96L64.7498 16.66C64.4965 17.18 64.1565 17.6333 63.7298 18.02C63.3165 18.4067 62.8232 18.7067 62.2498 18.92C61.6898 19.1333 61.0632 19.24 60.3698 19.24ZM57.1298 13.28L56.7098 12.96H63.6098L63.1898 13.3C63.1898 12.66 63.0632 12.1067 62.8098 11.64C62.5565 11.1733 62.2165 10.8133 61.7898 10.56C61.3632 10.3067 60.8698 10.18 60.3098 10.18C59.7632 10.18 59.2432 10.3067 58.7498 10.56C58.2698 10.8133 57.8765 11.1733 57.5698 11.64C57.2765 12.0933 57.1298 12.64 57.1298 13.28ZM66.9078 19V5H68.5078V19H66.9078ZM75.7223 19.24C74.749 19.24 73.8823 19.02 73.1223 18.58C72.3757 18.1267 71.789 17.5067 71.3623 16.72C70.9357 15.9333 70.7223 15.0267 70.7223 14C70.7223 12.9733 70.929 12.0667 71.3423 11.28C71.769 10.4933 72.3557 9.88 73.1023 9.44C73.8623 8.98667 74.7223 8.76 75.6823 8.76C76.669 8.76 77.5357 8.98667 78.2823 9.44C79.0423 9.88 79.629 10.4933 80.0423 11.28C80.469 12.0667 80.6823 12.9733 80.6823 14C80.6823 15.0267 80.469 15.9333 80.0423 16.72C79.629 17.5067 79.049 18.1267 78.3023 18.58C77.5557 19.02 76.6957 19.24 75.7223 19.24ZM75.7223 17.76C76.389 17.76 76.969 17.6 77.4623 17.28C77.9557 16.96 78.3423 16.52 78.6223 15.96C78.9157 15.4 79.0623 14.7467 79.0623 14C79.0623 13.2533 78.9157 12.6 78.6223 12.04C78.3423 11.48 77.949 11.04 77.4423 10.72C76.9357 10.4 76.349 10.24 75.6823 10.24C75.029 10.24 74.449 10.4 73.9423 10.72C73.449 11.04 73.0557 11.48 72.7623 12.04C72.4823 12.6 72.3423 13.2533 72.3423 14C72.3423 14.7333 72.4823 15.3867 72.7623 15.96C73.0557 16.52 73.4557 16.96 73.9623 17.28C74.4823 17.6 75.069 17.76 75.7223 17.76ZM83.0039 23V9H84.5039L84.6039 10.84V23H83.0039ZM87.9839 19.24C87.1439 19.24 86.4039 19.02 85.7639 18.58C85.1372 18.14 84.6506 17.5267 84.3039 16.74C83.9572 15.94 83.7839 15.0267 83.7839 14C83.7839 12.96 83.9572 12.0467 84.3039 11.26C84.6506 10.4733 85.1372 9.86 85.7639 9.42C86.4039 8.98 87.1439 8.76 87.9839 8.76C88.8772 8.76 89.6639 8.98 90.3439 9.42C91.0239 9.86 91.5506 10.4733 91.9239 11.26C92.3106 12.0467 92.5039 12.96 92.5039 14C92.5039 15.0267 92.3106 15.94 91.9239 16.74C91.5506 17.5267 91.0239 18.14 90.3439 18.58C89.6639 19.02 88.8772 19.24 87.9839 19.24ZM87.6239 17.78C88.2506 17.78 88.8039 17.62 89.2839 17.3C89.7772 16.98 90.1639 16.5333 90.4439 15.96C90.7372 15.3867 90.8839 14.7333 90.8839 14C90.8839 13.2667 90.7439 12.6133 90.4639 12.04C90.1972 11.4667 89.8172 11.02 89.3239 10.7C88.8306 10.38 88.2706 10.22 87.6439 10.22C87.0572 10.22 86.5306 10.38 86.0639 10.7C85.6106 11.02 85.2506 11.4667 84.9839 12.04C84.7306 12.6133 84.6039 13.2667 84.6039 14C84.6039 14.7333 84.7306 15.3867 84.9839 15.96C85.2506 16.5333 85.6106 16.98 86.0639 17.3C86.5172 17.62 87.0372 17.78 87.6239 17.78ZM99.1003 19.24C98.127 19.24 97.267 19.02 96.5203 18.58C95.7736 18.1267 95.187 17.5067 94.7603 16.72C94.347 15.9333 94.1403 15.0267 94.1403 14C94.1403 12.9733 94.347 12.0667 94.7603 11.28C95.187 10.4933 95.767 9.88 96.5003 9.44C97.247 8.98667 98.1003 8.76 99.0603 8.76C99.9936 8.76 100.8 8.99333 101.48 9.46C102.16 9.91333 102.687 10.5533 103.06 11.38C103.434 12.2067 103.62 13.18 103.62 14.3H95.3603L95.7603 13.96C95.7603 14.76 95.9003 15.4467 96.1803 16.02C96.4736 16.5933 96.8803 17.0333 97.4003 17.34C97.9203 17.6333 98.5136 17.78 99.1803 17.78C99.887 17.78 100.48 17.6133 100.96 17.28C101.454 16.9467 101.834 16.5067 102.1 15.96L103.48 16.66C103.227 17.18 102.887 17.6333 102.46 18.02C102.047 18.4067 101.554 18.7067 100.98 18.92C100.42 19.1333 99.7936 19.24 99.1003 19.24ZM95.8603 13.28L95.4403 12.96H102.34L101.92 13.3C101.92 12.66 101.794 12.1067 101.54 11.64C101.287 11.1733 100.947 10.8133 100.52 10.56C100.094 10.3067 99.6003 10.18 99.0403 10.18C98.4936 10.18 97.9736 10.3067 97.4803 10.56C97.0003 10.8133 96.607 11.1733 96.3003 11.64C96.007 12.0933 95.8603 12.64 95.8603 13.28ZM106.518 13.58C106.518 12.5 106.725 11.6267 107.138 10.96C107.552 10.28 108.078 9.78 108.718 9.46C109.372 9.12667 110.058 8.96 110.778 8.96V10.46C110.192 10.46 109.625 10.56 109.078 10.76C108.545 10.9467 108.105 11.26 107.758 11.7C107.412 12.14 107.238 12.74 107.238 13.5L106.518 13.58ZM105.638 19V9H107.238V19H105.638Z" fill="#666666"/>
<defs>
<clipPath id="clip0_234_23">
<rect y="4" width="16" height="16" rx="8" fill="white"/>
</clipPath>
</defs>
</svg>
